<svg width="50" height="50" viewBox="0 0 50 50" fill="none" xmlns="http://www.w3.org/2000/svg">
<g clip-path="url(#clip0_7_6996)">
<path fill-rule="evenodd" clip-rule="evenodd" d="M47.4919 25.2706C47.4919 12.9976 37.5427 3.04843 25.2697 3.04843C12.9968 3.04843 3.04751 12.9976 3.04751 25.2706C3.04751 37.5437 12.9968 47.4929 25.2697 47.4929C37.5427 47.4929 47.4919 37.5437 47.4919 25.2706ZM49.8729 25.2706C49.8729 11.6827 38.8577 0.66748 25.2697 0.66748C11.6818 0.66748 0.66655 11.6827 0.66655 25.2706C0.666549 38.8586 11.6818 49.8738 25.2697 49.8738C38.8577 49.8738 49.8729 38.8586 49.8729 25.2706Z" fill="#0047FF"/>
<path fill-rule="evenodd" clip-rule="evenodd" d="M24.7081 27.5158C25.018 27.8257 25.5206 27.8257 25.8305 27.5158L30.6006 22.7456C30.9106 22.4357 31.4131 22.4357 31.723 22.7456L32.2842 23.3068C32.5941 23.6167 32.5941 24.1193 32.2842 24.4292L25.8305 30.8829C25.5206 31.1929 25.018 31.1929 24.7081 30.8829L18.2544 24.4292C17.9444 24.1193 17.9444 23.6167 18.2544 23.3068L18.8156 22.7456C19.1255 22.4357 19.628 22.4357 19.9379 22.7456L24.7081 27.5158Z" fill="#0047FF"/>
</g>
<defs>
<clipPath id="clip0_7_6996">
<rect width="50" height="50" fill="white"/>
</clipPath>
</defs>
</svg>
