<svg width="50" height="50" viewBox="0 0 50 50" fill="none" xmlns="http://www.w3.org/2000/svg">
<g clip-path="url(#clip0_7_6987)">
<path fill-rule="evenodd" clip-rule="evenodd" d="M2.50809 24.7294C2.50809 37.0024 12.4573 46.9516 24.7303 46.9516C37.0032 46.9516 46.9525 37.0024 46.9525 24.7294C46.9525 12.4563 37.0032 2.50714 24.7303 2.50714C12.4573 2.50714 2.50809 12.4563 2.50809 24.7294ZM0.127136 24.7294C0.127136 38.3173 11.1423 49.3325 24.7303 49.3325C38.3182 49.3325 49.3334 38.3173 49.3335 24.7294C49.3335 11.1414 38.3182 0.12619 24.7303 0.12619C11.1423 0.12619 0.127136 11.1414 0.127136 24.7294Z" fill="#0047FF"/>
<path fill-rule="evenodd" clip-rule="evenodd" d="M25.2919 22.4842C24.982 22.1743 24.4794 22.1743 24.1695 22.4842L19.3994 27.2544C19.0894 27.5643 18.5869 27.5643 18.277 27.2544L17.7158 26.6932C17.4059 26.3833 17.4059 25.8807 17.7158 25.5708L24.1695 19.1171C24.4794 18.8071 24.982 18.8071 25.2919 19.1171L31.7456 25.5708C32.0556 25.8807 32.0556 26.3833 31.7456 26.6932L31.1844 27.2544C30.8745 27.5643 30.372 27.5643 30.0621 27.2544L25.2919 22.4842Z" fill="#0047FF"/>
</g>
<defs>
<clipPath id="clip0_7_6987">
<rect width="50" height="50" fill="white" transform="matrix(-1 0 0 -1 50 50)"/>
</clipPath>
</defs>
</svg>
