<svg width="50" height="50" viewBox="0 0 50 50" fill="none" xmlns="http://www.w3.org/2000/svg">
<path d="M31.7633 39.5894C31.7633 36.757 31.7789 33.9402 31.7478 31.1078C31.7478 30.5319 31.9034 30.3452 32.4948 30.3608C33.8643 30.4074 35.2494 30.3608 36.6189 30.3763C37.0391 30.3763 37.1792 30.2674 37.2258 29.8161C37.4126 28.1197 37.6149 26.4234 37.8795 24.7426C37.9729 24.1668 37.7705 24.1512 37.3348 24.1512C35.7007 24.1668 34.0666 24.1357 32.4325 24.1668C31.8878 24.1824 31.7167 23.9956 31.7322 23.4665C31.7633 22.2682 31.7322 21.0854 31.7478 19.8871C31.7789 18.1596 32.5103 17.3659 34.2222 17.2258C35.2805 17.148 36.3388 17.148 37.4126 17.1636C37.9262 17.1791 38.144 17.0702 38.1285 16.4944C38.0818 15.0471 38.1129 13.5842 38.1129 12.1368C38.1129 11.8256 38.1129 11.561 37.6927 11.5455C35.2649 11.4832 32.8372 11.0163 30.4405 11.7945C27.6081 12.6971 26.0518 14.6891 25.5071 17.5371C25.1648 19.3579 25.3826 21.2099 25.3359 23.0463C25.3048 24.3069 25.5227 24.1824 24.1532 24.1824C22.986 24.1824 21.8188 24.1979 20.6516 24.1824C20.1691 24.1668 19.9513 24.2757 19.9668 24.8204C19.9979 26.4856 19.9979 28.1353 19.9668 29.8005C19.9668 30.2829 20.138 30.423 20.6049 30.423C21.9744 30.3919 23.3595 30.423 24.729 30.4074C25.1959 30.4074 25.3515 30.5631 25.3515 31.03C25.3359 37.0994 25.3359 43.1689 25.3515 49.2383C25.3515 49.8608 25.0247 49.8141 24.6201 49.8141C19.0797 49.7208 14.0841 48.04 9.71099 44.6473C4.31074 40.4298 1.04257 34.8895 0.217745 28.1197C-0.824956 19.5914 1.88295 12.2769 8.21697 6.40976C12.0298 2.87703 16.5897 0.744937 21.741 0.184679C30.3471 -0.764645 37.6616 1.94326 43.5132 8.37066C46.9525 12.1524 48.9912 16.65 49.6138 21.7079C51.1078 33.8468 43.8556 44.8652 32.6037 48.5691C31.9968 48.7714 31.7322 48.8026 31.7478 47.9777C31.7945 45.192 31.7633 42.3907 31.7633 39.5894Z" fill="#0047FF"/>
</svg>
