<svg width="50" height="50" viewBox="0 0 50 50" fill="none" xmlns="http://www.w3.org/2000/svg">
<g clip-path="url(#clip0_8_17120)">
<path d="M24.9314 49.8006C11.1585 49.8006 0 38.6733 0 24.9314C0 11.1273 11.1429 0 24.947 0C38.6889 0 49.8006 11.174 49.8006 24.947C49.8006 38.6422 38.6422 49.8006 24.9314 49.8006ZM39.218 24.9003C39.218 22.7682 39.1558 20.6517 39.0779 18.5352C38.8912 14.0531 35.732 10.925 31.2343 10.7383C27.0168 10.5671 22.7994 10.5671 18.5663 10.7383C14.0687 10.9095 10.9095 14.0531 10.7227 18.5196C10.5515 22.7682 10.5515 27.0168 10.7227 31.2655C10.9095 35.7164 14.0531 38.8756 18.4885 39.0624C22.7682 39.2491 27.0324 39.2491 31.3122 39.0624C35.2962 38.8912 38.2531 36.4167 38.9068 32.4949C39.3269 29.9893 39.2024 27.437 39.218 24.9003Z" fill="#0047FF"/>
<path d="M36.5567 24.932C36.5411 27.2042 36.6812 29.4919 36.4478 31.764C36.1832 34.3008 34.3468 36.2461 31.8256 36.4173C27.2191 36.7285 22.6125 36.7285 18.006 36.4173C15.5004 36.2461 13.5706 34.3319 13.3994 31.8574C13.0726 27.2197 13.0726 22.5821 13.3994 17.9599C13.5706 15.4699 15.5004 13.6024 18.006 13.3845C21.99 13.0421 25.9896 13.2289 29.9737 13.2444C30.9074 13.2444 31.8412 13.3222 32.7438 13.5712C34.8292 14.1159 36.2455 15.7967 36.4478 17.9599C36.4945 18.3801 36.5723 18.7848 36.5723 19.1894C36.5723 21.1036 36.5567 23.0178 36.5567 24.932ZM24.9314 17.5709C20.8695 17.5553 17.5858 20.8079 17.5702 24.8231C17.5547 28.9161 20.8073 32.2154 24.8536 32.2309C28.8999 32.2465 32.1992 28.9939 32.2147 24.9787C32.2458 20.8857 28.9932 17.5864 24.9314 17.5709ZM32.5415 18.9871C33.4753 18.9871 34.2534 18.1934 34.2379 17.244C34.2223 16.3258 33.4753 15.5788 32.5571 15.5633C31.6078 15.5477 30.8141 16.3258 30.8141 17.2596C30.8141 18.1778 31.6078 18.9871 32.5415 18.9871Z" fill="#0047FF"/>
<path d="M24.8991 29.694C22.3157 29.694 20.0747 27.4375 20.1058 24.8696C20.1369 22.2862 22.3313 20.1074 24.8991 20.1074C27.4981 20.1074 29.7235 22.364 29.6924 24.9319C29.6613 27.5153 27.4669 29.694 24.8991 29.694Z" fill="#0047FF"/>
</g>
<defs>
<clipPath id="clip0_8_17120">
<rect width="50" height="50" fill="white"/>
</clipPath>
</defs>
</svg>
