<svg width="50" height="50" viewBox="0 0 50 50" fill="none" xmlns="http://www.w3.org/2000/svg">
<g clip-path="url(#clip0_8_17101)">
<path d="M24.947 0C38.72 0 49.8162 11.174 49.8007 25.0248C49.7851 38.72 38.58 49.8162 24.7758 49.8006C11.034 49.7851 -0.0155463 38.5799 1.64193e-05 24.698C0.0155791 11.0962 11.2363 0 24.947 0ZM20.4027 35.125C20.3872 35.125 20.3872 35.125 20.3716 35.125C20.3716 35.2806 20.356 35.4363 20.3716 35.5919C20.4027 35.8098 20.2315 36.0899 20.4961 36.2144C20.7295 36.3233 20.9474 36.1522 21.1342 36.0277C21.2898 35.9187 21.4143 35.7942 21.5388 35.6697C22.3481 34.9071 23.1884 34.1601 23.9355 33.3509C24.4179 32.8217 24.7447 32.884 25.2583 33.2886C27.0324 34.6426 28.8221 35.9654 30.6274 37.2571C31.7791 38.0819 32.635 37.7396 32.9929 36.3856C33.0241 36.23 33.0708 36.0899 33.1019 35.9343C34.2846 30.394 35.4674 24.8692 36.6191 19.3289C36.8214 18.3173 37.1793 17.3368 37.1637 16.2786C37.1482 15.4538 36.5568 14.8779 35.8409 15.0024C35.5141 15.0491 35.1873 15.1892 34.876 15.3137C30.0516 17.1657 25.2427 19.0332 20.4183 20.8851C17.3836 22.0523 14.3488 23.2351 11.3141 24.4179C10.785 24.6202 10.1313 24.8536 10.1625 25.5228C10.178 26.1765 10.8628 26.2698 11.3764 26.441C13.026 26.9702 14.6912 27.4526 16.3253 27.9973C16.9789 28.2152 17.4769 28.1529 18.0527 27.7794C22.4414 24.9781 26.8457 22.208 31.2655 19.4378C31.5923 19.2355 32.0592 18.8153 32.3549 19.2044C32.5883 19.5156 32.0281 19.7491 31.7791 19.9825C28.2619 23.1729 24.7447 26.3477 21.2275 29.538C20.963 29.787 20.6984 29.9893 20.6673 30.4251C20.6206 31.9814 20.4961 33.5532 20.4027 35.125Z" fill="#0047FF"/>
</g>
<defs>
<clipPath id="clip0_8_17101">
<rect width="50" height="50" fill="white"/>
</clipPath>
</defs>
</svg>
