<svg width="80" height="81" viewBox="0 0 80 81" fill="none" xmlns="http://www.w3.org/2000/svg">
<g clip-path="url(#clip0_4_6778)">
<path fill-rule="evenodd" clip-rule="evenodd" d="M24.1321 33.2364C23.9097 33.7418 24.1392 34.3319 24.6446 34.5543L35.7625 39.4461C37.0896 40.03 37.0896 41.9128 35.7625 42.4968L24.6446 47.3886C24.1392 47.611 23.9097 48.2011 24.1321 48.7065C24.3545 49.212 24.9445 49.4414 25.45 49.219L36.5679 44.3272C39.4874 43.0426 39.4874 38.9003 36.5678 37.6157L25.45 32.7238C24.9445 32.5015 24.3545 32.7309 24.1321 33.2364Z" fill="#FF7A00"/>
<path fill-rule="evenodd" clip-rule="evenodd" d="M40 78.7997C60.9841 78.7997 77.9951 61.7885 77.9951 40.8044C77.9951 19.8203 60.9841 2.80931 40 2.80931C19.0159 2.80931 2.00493 19.8203 2.00493 40.8044C2.00493 61.7885 19.0159 78.7997 40 78.7997ZM40 80.7994C62.0886 80.7994 79.9949 62.8929 79.9949 40.8044C79.9949 18.7158 62.0886 0.80957 40 0.80957C17.9115 0.80957 0.00518799 18.7158 0.00518799 40.8044C0.00518799 62.8929 17.9115 80.7994 40 80.7994Z" fill="#FF7A00"/>
<path d="M43.9995 48.4701C43.9995 47.9179 44.4472 47.4702 44.9994 47.4702H58.331C58.8832 47.4702 59.3309 47.9179 59.3309 48.4701C59.3309 49.0223 58.8832 49.47 58.331 49.47H44.9994C44.4472 49.47 43.9995 49.0223 43.9995 48.4701Z" fill="#FF7A00"/>
</g>
<defs>
<clipPath id="clip0_4_6778">
<rect width="79.9897" height="80.6562" fill="white" transform="translate(0.00518799 0.28125)"/>
</clipPath>
</defs>
</svg>
